# xmcd
#
# Track frame offsets: 
#        155
#        20365
#        43497
#        65677
#        87274
#        107992
#        128625
#        152394
#        175058
#        194266
#        216980
#        238910
#        265066
#        284290
#        310375
#
# Disc length: 4450 seconds
#
# Revision: 0
# Processed by: cddbd v1.5.2PL0 Copyright (c) Steve Scherf et al.
# Submitted via: ExactAudioCopy v0.99pb3
#
DISCID=da11600f
DTITLE=YOUSEF - Underwater Solo
DYEAR=2007
DGENRE=Techno
TTITLE0=DK7 - Instone
TTITLE1=Bushwacka! - Long distance
TTITLE2=Blake and Monroe - Summers Gone (Bushwacka dub)
TTITLE3=Siobhan Donaghy - dont give up (Carl Craig vox remix)
TTITLE4=I-Cube - Acid Tablet
TTITLE5=Dennis Ferrer - Son of Raw
TTITLE6=Claude von Stroke - The whistler (audiofly remix)
TTITLE7=Nick and Danny - chatelain
TTITLE8=Booka Shade - Tickle 
TTITLE9=Layo and Bushwacka! - Ride the train (Bushwacka mix)
TTITLE10=Trentemoller - african people 
TTITLE11=Nathan Fake - Outhouse (valentino kanzyani remix)
TTITLE12=Josh Wink - Thick as thieves
TTITLE13=Alex Kid - dont hide it (vocal mix)
TTITLE14=Dubfire - road kill
EXTD=
EXTT0=
EXTT1=
EXTT2=
EXTT3=
EXTT4=
EXTT5=
EXTT6=
EXTT7=
EXTT8=
EXTT9=
EXTT10=
EXTT11=
EXTT12=
EXTT13=
EXTT14=
PLAYORDER=
